<?xml version="1.0" encoding="UTF-8"?>
<svg width="700pt" height="700pt" version="1.1" viewBox="0 0 700 700" xmlns="http://www.w3.org/2000/svg">
 <g>
  <path d="m350 46.668c-12.887 0-23.332 10.445-23.332 23.332v70c0 12.887 10.445 23.332 23.332 23.332s23.332-10.445 23.332-23.332v-45.223c92.082 11.484 163.34 90.031 163.34 185.22 0 103.09-83.574 186.67-186.67 186.67s-186.67-83.574-186.67-186.67c0-55.902 24.547-106.05 63.527-140.29 9.6797-8.5039 10.633-23.246 2.1289-32.93-8.5078-9.6797-23.25-10.633-32.93-2.1289-48.637 42.73-79.391 105.46-79.391 175.35 0 128.87 104.46 233.33 233.33 233.33s233.33-104.46 233.33-233.33-104.46-233.33-233.33-233.33z"/>
  <path d="m308.89 194.26c-8.6914-9.5117-23.453-10.18-32.965-1.4883-9.5156 8.6914-10.184 23.449-1.4922 32.965l58.332 63.859c8.6914 9.5117 23.453 10.18 32.965 1.4883 9.5156-8.6914 10.184-23.449 1.4922-32.965z"/>
 </g>
</svg>
